<?xml version="1.0" standalone="no"?>
<!DOCTYPE svg PUBLIC "-//W3C//DTD SVG 20010904//EN"
 "http://www.w3.org/TR/2001/REC-SVG-20010904/DTD/svg10.dtd">
<svg version="1.0" xmlns="http://www.w3.org/2000/svg"
 width="300.000000pt" height="72.000000pt" viewBox="0 0 300.000000 72.000000"
 preserveAspectRatio="xMidYMid meet">

<g transform="translate(0.000000,72.000000) scale(0.100000,-0.100000)"
fill="#000000" stroke="none">
<path d="M1135 591 c-31 -13 -48 -39 -48 -72 0 -23 13 -44 61 -92 67 -68 75
-91 37 -109 -19 -9 -29 -7 -50 6 -21 14 -29 15 -41 5 -21 -18 -17 -33 15 -52
67 -39 151 0 151 72 0 32 -8 45 -60 96 -33 33 -60 68 -60 79 0 16 5 18 40 13
73 -10 78 45 5 58 -17 2 -39 1 -50 -4z"/>
<path d="M2569 571 c-47 -47 -38 -75 49 -155 57 -54 65 -81 27 -98 -19 -9 -29
-8 -49 6 -21 13 -29 14 -46 4 -27 -17 -25 -25 13 -48 47 -29 93 -26 128 9 48
49 41 81 -37 161 -72 74 -76 96 -16 86 34 -5 62 6 62 25 0 12 -55 39 -80 39
-12 0 -35 -13 -51 -29z"/>
<path d="M1292 568 c2 -19 10 -24 46 -26 l42 -3 0 -140 0 -139 30 0 30 0 0
139 0 140 43 3 c35 2 43 7 45 26 3 22 2 22 -118 22 -120 0 -121 0 -118 -22z"/>
<path d="M1635 576 c-42 -18 -83 -69 -91 -112 -22 -116 63 -213 178 -202 159
16 204 214 69 305 -39 26 -108 30 -156 9z m125 -51 c41 -21 60 -53 60 -101 0
-112 -155 -152 -213 -55 -58 98 51 209 153 156z"/>
<path d="M2015 574 c-46 -24 -63 -43 -81 -90 -51 -133 77 -261 215 -213 26 9
31 16 31 44 l0 33 -37 -19 c-49 -25 -73 -24 -114 4 -43 29 -61 63 -55 106 10
69 89 116 156 93 29 -11 30 -10 30 17 0 17 -7 31 -16 35 -29 11 -99 6 -129
-10z"/>
<path d="M2240 425 l0 -165 25 0 c24 0 25 2 25 70 0 39 4 70 8 70 4 0 34 -31
66 -70 52 -62 63 -70 93 -70 l34 0 -74 86 -75 86 59 77 59 76 -27 3 c-29 4
-39 -5 -110 -93 l-32 -40 -1 68 c0 65 -1 67 -25 67 l-25 0 0 -165z"/>
<path d="M731 352 c-195 -189 -203 -202 -119 -199 21 0 33 4 28 7 -5 3 42 57
105 120 96 96 116 112 129 101 13 -11 16 -7 25 26 13 47 25 123 20 123 -2 0
-87 -80 -188 -178z"/>
<path d="M468 333 c-138 -139 -155 -160 -144 -175 12 -16 14 -16 42 1 16 11
58 49 94 85 35 36 68 66 72 66 4 0 8 -19 8 -42 l0 -42 60 59 c32 32 57 61 55
65 -2 3 -5 36 -6 73 -1 41 -6 67 -13 67 -6 0 -82 -71 -168 -157z"/>
<path d="M758 483 c7 -3 16 -2 19 1 4 3 -2 6 -13 5 -11 0 -14 -3 -6 -6z"/>
<path d="M695 430 c3 -5 8 -10 11 -10 2 0 4 5 4 10 0 6 -5 10 -11 10 -5 0 -7
-4 -4 -10z"/>
<path d="M390 149 c0 -5 5 -7 10 -4 6 3 10 8 10 11 0 2 -4 4 -10 4 -5 0 -10
-5 -10 -11z"/>
<path d="M510 149 c0 -5 5 -7 10 -4 6 3 10 8 10 11 0 2 -4 4 -10 4 -5 0 -10
-5 -10 -11z"/>
<path d="M695 150 c3 -5 8 -10 11 -10 2 0 4 5 4 10 0 6 -5 10 -11 10 -5 0 -7
-4 -4 -10z"/>
<path d="M815 150 c3 -5 8 -10 11 -10 2 0 4 5 4 10 0 6 -5 10 -11 10 -5 0 -7
-4 -4 -10z"/>
</g>
</svg>
